<svg xmlns="http://www.w3.org/2000/svg" viewBox="0 0 64 64">
  
  <defs>
    <linearGradient id="meta-g" x1="0" y1="0" x2="1" y2="1">
      <stop offset="0" stop-color="#0064e0"></stop>
      <stop offset="1" stop-color="#0082fb"></stop>
    </linearGradient>
  </defs>
  <rect width="64" height="64" rx="14" fill="url(#meta-g)"></rect>
  <path d="M14 32c0-7 4-12 10-12 4 0 7 2 10 7l2 3 2-3c3-5 6-7 10-7 6 0 10 5 10 12s-4 12-10 12c-4 0-7-2-10-7l-2-3-2 3c-3 5-6 7-10 7-6 0-10-5-10-12zm5 0c0 4 2 7 5 7 2 0 4-1 6-4l3-4-2-3c-2-3-4-4-7-4-3 0-5 3-5 8zm17 3l3 4c2 3 4 4 6 4 3 0 5-3 5-7s-2-8-5-8c-3 0-5 1-7 4l-2 3z" fill="#fff"></path>
</svg>