<svg xmlns="http://www.w3.org/2000/svg" viewBox="0 0 64 64">
  
  <circle cx="32" cy="32" r="32" fill="#2775ca"></circle>
  <path d="M40.5 26.5c0-3.5-2-5.3-6.2-5.7v-2.3h-3.6v2.3c-4.2.4-6.2 2.5-6.2 5.7 0 3.4 2.1 5 6.2 5.5v6.6c-2.3-.4-3.5-1.5-3.5-3.2v-.5h-3.7v.5c0 3.5 2.3 5.3 7.2 5.6v2.3h3.6v-2.3c4.4-.3 6.7-2.4 6.7-5.8 0-3.4-2.2-5.1-6.7-5.6v-6.3c2.1.3 3.2 1.3 3.2 3v.5h3.7v-.4zm-12.4-.2c0-1.5 1-2.4 3-2.6v5.4c-2-.4-3-1.4-3-2.8zm9.3 9.7c0 1.6-1 2.5-3.1 2.8v-5.6c2.1.3 3.1 1.2 3.1 2.8z" fill="#fff"></path>
</svg>